<?xml version="1.0" encoding="utf-8"?>
<!-- Generator: Adobe Illustrator 21.0.0, SVG Export Plug-In . SVG Version: 6.00 Build 0)  -->
<svg version="1.1" id="图层_1" xmlns="http://www.w3.org/2000/svg" xmlns:xlink="http://www.w3.org/1999/xlink" x="0px" y="0px"
	 viewBox="0 0 758.7 505.6" style="enable-background:new 0 0 758.7 505.6;" xml:space="preserve">
<style type="text/css">
	.st0{fill:#E6E6E6;}
	.st1{fill:#3F3D56;}
	.st2{fill:#FFFFFF;}
	.st3{fill:#F2F2F2;}
	.st4{fill:#87DF75;}
	.st5{fill:#6C63FF;}
	.st6{clip-path:url(#SVGID_2_);}
	.st7{fill:#0F7944;}
</style>
<g>
	<path class="st0" d="M737.2,413.7h-554c-11.8,0-21.5-9.6-21.5-21.5v-66.7h596.9v66.7C758.7,404.1,749,413.7,737.2,413.7z"/>
	<rect x="390.6" y="402.5" class="st0" width="141.3" height="100.9"/>
	<rect x="382.1" y="490.7" class="st0" width="158.3" height="12.7"/>
	<path class="st1" d="M758.1,353.7H161.7v-339c0-8.1,6.6-14.7,14.7-14.7h566.9c8.1,0,14.7,6.6,14.7,14.7L758.1,353.7L758.1,353.7z"
		/>
	<rect x="175.5" y="15.4" class="st2" width="568.2" height="319.7"/>
</g>
<path class="st1" d="M197.9,504.4c0,0.7,0.5,1.2,1.2,1.2h522.3c0.7,0,1.2-0.5,1.2-1.2s-0.5-1.2-1.2-1.2H199.1
	C198.4,503.2,197.9,503.7,197.9,504.4z"/>
<g>
	<path id="r-316" class="st3" d="M435.2,112.3c3.6-2.3,4.3-7.2,1.8-10.6l-11.7-16.1c-2.7-3.8-8-4.6-11.7-1.9
		c-0.3,0.2-0.6,0.5-0.9,0.8c-19.8,10.6-30.4,26-18.6,44.3c0,3,0.2,6.1,0.7,9.1c0.2,1.3,0.6,2.6,1.4,3.7c2.2,3.2,6.1,4.4,9.6,3.3
		l19.1-6.2c4.1-1.3,6.3-5.7,4.8-9.7C427.6,123.7,428.4,116.6,435.2,112.3L435.2,112.3z"/>
	<path id="s-317" class="st0" d="M480.5,159.7c-5.5-0.5-10.2,4-10.2,9.5v16.5c0,0.4,0,0.9,0.1,1.3c0.7,4.6,5,7.7,9.6,7
		c26.8,3.3,45.1-8.3,46.2-33.9c0.2-0.4,0.3-0.7,0.4-1.1c1.4-4.4-1-9.1-5.4-10.6l-16-5.2c-5.5-1.8-11.3,1.8-12.2,7.5
		C492.1,155.9,488.7,160.5,480.5,159.7L480.5,159.7z"/>
	<path id="t-318" class="st1" d="M381.6,175.8c5.6,32.9,34.5,45.4,64.6,47.4c0.6,0.1,1.2,0.1,1.8,0.1c6.5,0,11.8-5.3,11.8-11.8V184
		c0-7.7-6.3-13.7-14-13.8c-7.5-0.1-12.3-3.6-14.3-10.1c-2.3-7.4-10.4-11.3-17.8-8.9l-25.2,8.2c-3.3,1.1-5.9,3.5-7.2,6.6
		C380,169.2,380.1,172.7,381.6,175.8z"/>
	<path id="u-319" class="st4" d="M536.6,61.9c-4.6-4.5-12.1-4.5-16.6,0.2c-0.4,0.4-0.8,0.9-1.1,1.3l-22.3,30.8
		c-2.9,3.9-1.2,9.4,3.2,11.3c10.5,4.5,9.4,14.6,6,20.8c-1.7,3-0.3,6.8,3,7.9l37.7,12.2c6.2,2,12.8-1.4,14.8-7.6
		c0.2-0.6,0.4-1.3,0.4-1.9c0.6-4.3,1-8.7,1-13C569,100.1,560.1,77.7,536.6,61.9L536.6,61.9z"/>
	<path id="v-320" class="st0" d="M471.9,97.5c4.2,2.3,9.4,1.2,12.3-2.7l7.5-10.3c1.5-2,2-4.5,1.4-6.9s-2.1-4.4-4.3-5.5
		c-17.6-15.9-38.5-16.9-56.2-0.1c-2.2,1.1-3.8,3.2-4.4,5.6s-0.1,4.9,1.4,6.9l8.7,12c3,4.1,8.8,5.2,13,2.2
		C457.3,94.5,466,94.2,471.9,97.5L471.9,97.5z"/>
	<path id="x-321" class="st1" d="M373.3,305.1c0.7-2.8,3.8-3.8,6.4-3.7c1.6,0.1,3.2,0.4,4.8,0.8c1.7,0.4,3.3,0.8,4.9,1.3
		c3,0.9,6,1.9,9,2.6c2.6,0.7,5.2,0.7,7.8,0.1c2.5-0.7,4.4-2.6,5.2-5.1c0.7-2.4-0.3-4.9-2.5-6c-2-1.1-4.6-0.4-5.7,1.7v0.1
		c-0.9,2.5-0.2,5.3,1.8,7.1c1,1,2.2,1.9,3.4,2.6c1.2,0.9,2.6,1.5,4.1,1.8c2.5,0.7,5.1-0.4,6.5-2.5c0.3-0.5,0.4-1.1,0.5-1.7
		c0.1-0.8-1.2-0.8-1.2,0c-0.2,2.3-2.9,3.4-4.9,3.1c-1.4-0.2-2.6-0.7-3.8-1.5c-1.1-0.6-2.2-1.4-3.1-2.2c-1.7-1.5-3.3-3.9-2.2-6.2
		c0.9-1.5,2.8-2,4.3-1.1c0.2,0.1,0.4,0.3,0.5,0.4c1.8,1.5,1.5,4.1,0.3,5.8c-1.4,1.8-3.6,2.9-5.9,2.8c-2.4,0-4.8-0.4-7.1-1.1
		c-2.9-0.8-5.7-1.7-8.6-2.5c-1.6-0.4-3.3-0.8-5-1.1c-1.6-0.3-3.2-0.5-4.8-0.3c-2.7,0.1-5.1,1.9-5.9,4.5
		C371.9,305.5,373.1,305.9,373.3,305.1z"/>
	<path id="y-322" class="st0" d="M422.7,272.5c0.4,0,0.7,1.1,0.7,2.4v4.8c0,1.3-0.3,2.4-0.7,2.4h-53.9c-0.4,0-0.7-1.1-0.7-2.4v-4.8
		c0-1.3,0.3-2.4,0.7-2.4H422.7"/>
	<path id="a_x60_-323" class="st0" d="M566.8,272.5c0.4,0,0.7,1.1,0.7,2.4v4.8c0,1.3-0.3,2.4-0.7,2.4h-53.9c-0.4,0-0.7-1.1-0.7-2.4
		v-4.8c0-1.3,0.3-2.4,0.7-2.4H566.8"/>
	<path id="aa-324" class="st5" d="M542.8,299.7l-10.7,3.5l-5.3,1.8c-1.6,0.7-3.4,1-5.2,1c-1.3-0.1-2.5-0.9-3-2.1
		c-0.2-1.2,0.3-2.5,1.3-3.1c2.6-1.9,5.8,0,7.6,2c2.2,2.5,3.5,5.6,5.5,8.2c1.8,2.3,4.2,4.2,6.9,5.5c5.3,2.6,11.7,2.1,16.5-1.4
		c5.6-4.3,6.2-11.9,6.2-18.5c0-0.6-0.6-1.1-1.2-1.1c-0.6,0-1.1,0.5-1.1,1.1c0,6-0.4,13.3-5.8,17c-5.2,3.6-12,2.6-16.8-1.2
		c-2.5-2.2-4.5-4.8-6.1-7.8c-1.7-2.8-3.8-5.5-7.1-6.6c-2.8-1-6,0.1-7.6,2.7c-1.4,2.3-0.6,5.3,1.7,6.6c0.2,0.1,0.4,0.2,0.6,0.3
		c3.7,1.8,8-0.3,11.6-1.5l12.7-4.2C544.8,301.5,544.2,299.3,542.8,299.7L542.8,299.7z"/>
	<rect x="568.1" y="84.3" class="st1" width="76.5" height="2.8"/>
	<path class="st1" d="M674.5,105.3c-10.8,0-19.6-8.8-19.6-19.6s8.8-19.6,19.6-19.6s19.6,8.8,19.6,19.6S685.4,105.3,674.5,105.3z
		 M674.5,68.9c-9.3,0-16.8,7.5-16.8,16.8s7.5,16.8,16.8,16.8s16.8-7.5,16.8-16.8S683.8,68.9,674.5,68.9z"/>
	<circle class="st4" cx="674.5" cy="85.7" r="9.8"/>
	<rect x="278.9" y="187.9" class="st1" width="92.7" height="2.8"/>
	<path class="st1" d="M233,190.7c0-10.8,8.8-19.6,19.6-19.6c10.8,0,19.6,8.8,19.6,19.6s-8.8,19.6-19.6,19.6
		C241.8,210.3,233,201.5,233,190.7z M235.8,190.7c0,9.3,7.5,16.8,16.8,16.8c9.3,0,16.8-7.5,16.8-16.8s-7.5-16.8-16.8-16.8
		C243.4,173.9,235.8,181.5,235.8,190.7z"/>
	<circle class="st4" cx="252.6" cy="190.7" r="9.8"/>
</g>
<g>
	<g>
		<path class="st1" d="M182.6,449.8H98.5c-12.6,0-22.9-10.3-22.9-22.9V204.7c0-12.6,10.3-22.9,22.9-22.9h84.1
			c12.6,0,22.9,10.3,22.9,22.9c1.6,89.2,4.2,189.2,0,222.3C205.5,439.6,195.2,449.8,182.6,449.8z"/>
		<path class="st1" d="M206.6,263.6c-0.5,0-1,0.4-1,1v31c0,0.5,0.4,1,1,1s1-0.4,1-1v-31C207.6,264,207.2,263.6,206.6,263.6
			L206.6,263.6z"/>
		<g>
			<g>
				<defs>
					<path id="SVGID_1_" d="M197.6,207.5l5.7,219.5c0,11-8.5,20-19.3,20.7l0,0c-0.2,0-0.3,0-0.5,0c-0.3,0-0.6,0-0.9,0
						c0,0-1.1-0.1-3-0.2c-2-0.1-4.8-0.4-8.4-0.6c-1.1-0.1-2.2-0.2-3.4-0.3c-2.4-0.2-5-0.4-7.8-0.6c-1.1-0.1-2.3-0.2-3.4-0.3
						c-6-0.5-12.7-1.1-19.8-1.8c-1.2-0.1-2.4-0.2-3.6-0.3c-0.3,0-55.3-13.9-55.3-16.5V204.7c0-11.4,9.3-20.7,20.7-20.7H111
						c2,0,3.6,1.5,3.7,3.5c0,0.1,0,0.3,0.1,0.4c0.4,2,2.2,3.4,4.2,3.4h43.4c2,0,3.8-1.4,4.2-3.4c0-0.1,0-0.3,0.1-0.4
						c0.2-2,1.8-3.5,3.7-3.5h12.4C194,184,197.6,196.1,197.6,207.5L197.6,207.5z"/>
				</defs>
				<clipPath id="SVGID_2_">
					<use xlink:href="#SVGID_1_"  style="overflow:visible;"/>
				</clipPath>
				<g class="st6">
					
						<image style="overflow:visible;enable-background:new    ;" width="391" height="1685" xlink:href="WechatIMG14.jpeg"  transform="matrix(0.3301 0 0 0.3301 74.1988 85.9704)">
					</image>
				</g>
			</g>
		</g>
		<path class="st1" d="M75.2,240.4c-0.5,0-1,0.4-1,1v7.7c0,0.5,0.4,1,1,1c0.5,0,1-0.4,1-1v-7.7C76.1,240.8,75.7,240.4,75.2,240.4z"
			/>
		<path class="st1" d="M75.2,263.6c-0.5,0-1,0.4-1,1v15c0,0.5,0.4,1,1,1c0.5,0,1-0.4,1-1v-15C76.1,264,75.7,263.6,75.2,263.6z"/>
		<path class="st1" d="M75.2,284.9c-0.5,0-1,0.4-1,1v15c0,0.5,0.4,1,1,1c0.5,0,1-0.4,1-1v-15C76.1,285.3,75.7,284.9,75.2,284.9
			L75.2,284.9z"/>
		<path class="st0" d="M92,187.4h18.5c0.1,0,0.2,0.1,0.2,0.2v2.1c0,0.1-0.1,0.2-0.2,0.2H92c-0.1,0-0.2-0.1-0.2-0.2v-2.1
			C91.9,187.5,91.9,187.4,92,187.4z"/>
		<circle class="st0" cx="173.3" cy="187.9" r="1.9"/>
		<circle class="st0" cx="178.6" cy="187.9" r="1.9"/>
		<circle class="st0" cx="183.9" cy="187.9" r="1.9"/>
	</g>
	<g>
		<path class="st2" d="M140.2,374.8H17.6c-4.9,0-8.9-4-8.9-8.9v-92.7c0-4.9,4-8.9,8.9-8.9h122.6c4.9,0,8.9,4,8.9,8.9v92.7
			C149.1,370.8,145.1,374.8,140.2,374.8L140.2,374.8z"/>
		<path class="st1" d="M140.2,374.8H17.6c-4.9,0-8.9-4-8.9-8.9v-92.7c0-4.9,4-8.9,8.9-8.9h122.6c4.9,0,8.9,4,8.9,8.9v92.7
			C149.1,370.8,145.1,374.8,140.2,374.8L140.2,374.8z M17.6,265.7c-4.1,0-7.5,3.3-7.5,7.5v92.7c0,4.1,3.3,7.5,7.5,7.5h122.6
			c4.1,0,7.5-3.3,7.5-7.5v-92.7c0-4.1-3.3-7.5-7.5-7.5H17.6z"/>
		<circle class="st1" cx="126.7" cy="273.2" r="2.2"/>
		<circle class="st1" cx="132.7" cy="273.2" r="2.2"/>
		<circle class="st1" cx="138.7" cy="273.2" r="2.2"/>
		<path class="st0" d="M21.4,309.4c-0.6,0-1.1,0.5-1.1,1.1c0,0.3,0.1,0.6,0.3,0.8c0.2,0.2,0.5,0.3,0.8,0.3h115.8
			c0.6,0,1.1-0.5,1.1-1.1c0-0.3-0.1-0.6-0.3-0.8c-0.2-0.2-0.5-0.3-0.8-0.3H21.4L21.4,309.4z"/>
		<path class="st7" d="M116.2,309v3H21.4c-0.4,0-0.8-0.2-1.1-0.4c-0.3-0.3-0.4-0.6-0.4-1.1c0-0.8,0.7-1.5,1.5-1.5H116.2L116.2,309z"
			/>
		<path class="st0" d="M135.3,303.4h-14.9c-1.6,0-3-1.3-3-3c0-1.6,1.3-3,3-3h14.9c1.6,0,3,1.3,3,3S136.9,303.4,135.3,303.4z"/>
		<path class="st0" d="M37.4,287.7H22.5c-1.6,0-3-1.3-3-3s1.3-3,3-3h14.9c1.6,0,3,1.3,3,3S39.1,287.7,37.4,287.7L37.4,287.7z"/>
		<path class="st0" d="M21.4,343c-0.6,0-1.1,0.5-1.1,1.1c0,0.3,0.1,0.6,0.3,0.8c0.2,0.2,0.5,0.3,0.8,0.3h115.8
			c0.6,0,1.1-0.5,1.1-1.1c0-0.3-0.1-0.6-0.3-0.8c-0.2-0.2-0.5-0.3-0.8-0.3H21.4L21.4,343z"/>
		<path class="st7" d="M58.7,342.6v3H21.4c-0.4,0-0.8-0.2-1.1-0.4c-0.3-0.3-0.4-0.6-0.4-1.1c0-0.8,0.7-1.5,1.5-1.5H58.7L58.7,342.6z
			"/>
		<path class="st0" d="M135.3,337h-14.9c-1.6,0-3-1.3-3-3s1.3-3,3-3h14.9c1.6,0,3,1.3,3,3S136.9,337,135.3,337z"/>
	</g>
</g>
</svg>
