<?xml version="1.0" encoding="utf-8"?>
<!-- Generator: Adobe Illustrator 21.0.0, SVG Export Plug-In . SVG Version: 6.00 Build 0)  -->
<svg version="1.1" id="图层_1" xmlns="http://www.w3.org/2000/svg" xmlns:xlink="http://www.w3.org/1999/xlink" x="0px" y="0px"
	 viewBox="0 0 641.5 626.4" style="enable-background:new 0 0 641.5 626.4;" xml:space="preserve">
<style type="text/css">
	.st0{display:none;fill:#FF6884;}
	.st1{fill:#73995C;}
	.st2{fill:#CCFFD9;}
	.st3{fill:#FF6884;}
	.st4{fill:#FFB6B6;}
	.st5{opacity:0.1;enable-background:new    ;}
	.st6{fill:#2F2E41;}
	.st7{fill:#E6E6E6;}
	.st8{fill:#FFFFFF;}
	.st9{fill:#3F3D56;}
</style>
<circle class="st0" cx="485.6" cy="174.4" r="65"/>
<g>
	<g>
		<path class="st1" d="M198.1,459.5h-80.4c-2,0-3.7-1.6-3.7-3.7s1.6-3.7,3.7-3.7h80.4c2,0,3.7,1.6,3.7,3.7S200.1,459.5,198.1,459.5
			L198.1,459.5z"/>
		<path class="st2" d="M54.6,479.2c0,0.7,0.5,1.2,1.2,1.2h204.3c0.7,0,1.2-0.5,1.2-1.2c0-0.7-0.5-1.2-1.2-1.2H55.8
			C55.1,478,54.6,478.5,54.6,479.2z"/>
	</g>
	<path class="st3" d="M482.8,132.2L482.8,132.2c-0.1,0.1-0.2,0.2-0.3,0.3c-15.4-15.3-40.2-15.4-55.7-0.3l0,0
		c-15.6,15.2-16.1,40-1.2,55.8l0,0l0.4,0.4l0,0l55,56.7l57.1-55.4l-0.2-0.2c0.1-0.1,0.2-0.2,0.3-0.3l0,0
		c15.8-15.3,16.1-40.5,0.8-56.2l0,0C523.8,117.2,498.6,116.9,482.8,132.2L482.8,132.2C482.8,132.2,482.8,132.2,482.8,132.2z"/>
	<path class="st2" d="M0,561.3c0,0.7,0.5,1.2,1.2,1.2h522.3c0.7,0,1.2-0.5,1.2-1.2c0-0.7-0.5-1.2-1.2-1.2H1.2
		C0.5,560.1,0,560.6,0,561.3z"/>
	<g>
		<path class="st2" d="M7.6,480.9l-1.7-1.8l163.1-148.8l58.7,26.3l63.4-108.8l52.1-25.1l48.3,80.5c26.1-67.5,91.5-138.1,169.8-209.8
			l1.9,1.6c-73.5,70.4-136.4,141-172,212.5l-44.7-74.7c-2.1-3.5-6.5-4.9-10.3-3.2l0,0c-28.5,13.3-52.3,34.9-68.1,62l-39.7,68
			l-9.1-4.1c-30.3-13.6-65.9-7.9-90.4,14.5L7.6,480.9z"/>
		<polygon class="st2" points="565,107 562.6,107.2 558.6,98.5 549.6,96.7 549.3,94.2 564,92.2 		"/>
	</g>
	<polygon class="st4" points="310.7,160 319.4,126.3 353.6,124.6 363.8,171.1 	"/>
	<polygon class="st5" points="310.7,160 319.4,126.3 353.6,124.6 363.8,171.1 	"/>
	<circle class="st4" cx="333.2" cy="103.9" r="41.2"/>
	<path class="st6" d="M355.9,112.6L355.9,112.6c0,0-15.7-31-34-29.2c-18.3,1.8-28,4-28,4s-5.4-24.2,20.2-33.5
		c0,0-32.6-32.1,6.2-47.9s60.5,4.3,60.5,4.3s28.7,28.7-7.5,50.1c0,0,26.9,36.1-5.7,65.9c0,0,7.3-24.1-0.3-19.7
		C359.8,111.2,355.9,112.6,355.9,112.6L355.9,112.6C355.9,112.6,355.9,112.6,355.9,112.6z"/>
	<polygon class="st6" points="287.7,330.4 282.2,335.7 242.6,420.6 238.3,561.1 304.8,561.1 336,491.5 357,560.4 416.9,560.4 
		430.8,435.3 393.5,346.9 	"/>
	<path class="st7" d="M356.6,156.6h-44.4l-48.3,26l11.3,50.3c0,0-2.6,30.3,3.5,52.9c6.1,22.5,3.5,52,3.5,52l111.4,9.1l3.5-102.3
		l-1.7-68.5L356.6,156.6L356.6,156.6L356.6,156.6z"/>
	<path class="st7" d="M271.2,183c0,0-26.9,0.9-31.2,18.2s-7.8,106.7-7.8,106.7s2.6,53,31.6,27.8s26.4-101.5,26.4-101.5L271.2,183
		L271.2,183z"/>
	<path class="st8" d="M531.9,625.4H373.5c-5.4,0-9.7-4.4-9.7-9.7V451.9c0-5.4,4.4-9.7,9.7-9.7h158.4c5.4,0,9.7,4.4,9.7,9.7v163.8
		C541.7,621,537.3,625.4,531.9,625.4z"/>
	<path class="st9" d="M531.9,626.4H373.5c-5.9,0-10.7-4.8-10.7-10.7V451.9c0-5.9,4.8-10.7,10.7-10.7h158.4c5.9,0,10.7,4.8,10.7,10.7
		v163.8C542.7,621.6,537.8,626.4,531.9,626.4z M373.5,443.2c-4.8,0-8.7,3.9-8.7,8.7v163.8c0,4.8,3.9,8.7,8.7,8.7h158.4
		c4.8,0,8.7-3.9,8.7-8.7V451.9c0-4.8-3.9-8.7-8.7-8.7H373.5z"/>
	<g>
		<path class="st1" d="M459,582.4h-13.1c-1.6,0-2.9-1-2.9-2.2v-56.2c0-1.2,1.3-2.2,2.9-2.2H459c1.6,0,2.9,1,2.9,2.2v56.2
			C461.9,581.4,460.6,582.4,459,582.4z"/>
		<path class="st1" d="M415.8,549.2c-1.3,0-2.3,0.8-2.3,1.8v29c0,1,1,1.8,2.3,1.8h13.1c1.3,0,2.3-0.8,2.3-1.8v-29c0-1-1-1.8-2.3-1.8
			H415.8z"/>
		<path class="st1" d="M489.1,582.4H476c-1.6,0-2.9-1-2.9-2.2V488c0-1.2,1.3-2.2,2.9-2.2h13.1c1.6,0,2.9,1,2.9,2.2v92.1
			C492,581.4,490.7,582.4,489.1,582.4z"/>
	</g>
	<g>
		<path class="st1" d="M208.1,178.6h-14.9c-1.8,0-3.3-1.1-3.3-2.5v-64.2c0-1.4,1.5-2.5,3.3-2.5h14.9c1.8,0,3.3,1.1,3.3,2.5V176
			C211.4,177.4,209.9,178.6,208.1,178.6L208.1,178.6L208.1,178.6z"/>
		<path class="st1" d="M158.8,140.7c-1.5,0-2.7,0.9-2.7,2.1V176c0,1.1,1.2,2.1,2.7,2.1h14.9c1.5,0,2.7-0.9,2.7-2.1v-33.2
			c0-1.1-1.2-2.1-2.7-2.1H158.8z"/>
		<path class="st1" d="M242.5,178.6h-14.9c-1.8,0-3.3-1.1-3.3-2.5V70.8c0-1.4,1.5-2.5,3.3-2.5h14.9c1.8,0,3.3,1.1,3.3,2.5V176
			C245.8,177.4,244.3,178.6,242.5,178.6L242.5,178.6L242.5,178.6z"/>
	</g>
	<path class="st4" d="M428.4,466c7.7-0.7,13-11.2,11.9-23.3c-0.4-4.9-2-9.5-4.5-13.7l-1.5-13.7l0.2-0.1l3.7-65.2
		c0.9-15.2-5.1-30-16.7-39.9c-6.9-5.9-14.2-8.8-18.9-1.4c-7.8,12.3,2.3,62.8,9,91.6l2.6,30.7c-1.8,4.5-2.4,9.5-1.9,14.3
		C413.5,457.5,420.7,466.7,428.4,466z"/>
	<path class="st7" d="M385.7,177.8c0,0,22.5-8.7,33,17.3s21.7,154.3,21.7,154.3l-52.9-9.5L385.7,177.8L385.7,177.8L385.7,177.8z"/>
	<g>
		<path class="st7" d="M76.1,165.1H45.7c-2,0-3.7-1.6-3.7-3.7s1.6-3.7,3.7-3.7h30.4c2,0,3.7,1.6,3.7,3.7S78.1,165.1,76.1,165.1z"/>
		<path class="st7" d="M76.1,113H45.7c-2,0-3.7-1.6-3.7-3.7s1.6-3.7,3.7-3.7h30.4c2,0,3.7,1.6,3.7,3.7S78.1,113,76.1,113z"/>
		<path class="st7" d="M76.1,75.4H45.7c-2,0-3.7-1.6-3.7-3.7s1.6-3.7,3.7-3.7h30.4c2,0,3.7,1.6,3.7,3.7S78.1,75.4,76.1,75.4z"/>
		<path class="st2" d="M40.8,178.8c0,0.7,0.5,1.2,1.2,1.2h204.3c0.7,0,1.2-0.5,1.2-1.2c0-0.7-0.5-1.2-1.2-1.2H42
			C41.4,177.6,40.8,178.1,40.8,178.8z"/>
	</g>
	<path class="st2" d="M434.8,486.8c0,0.7,0.5,1.2,1.2,1.2h204.3c0.7,0,1.2-0.5,1.2-1.2c0-0.7-0.5-1.2-1.2-1.2H436
		C435.4,485.6,434.8,486.1,434.8,486.8L434.8,486.8z"/>
	<path class="st2" d="M374.8,583.8c0,0.7,0.5,1.2,1.2,1.2h204.3c0.7,0,1.2-0.5,1.2-1.2c0-0.7-0.5-1.2-1.2-1.2H376
		C375.4,582.6,374.8,583.1,374.8,583.8L374.8,583.8z"/>
	<path class="st4" d="M237.5,172.7c-7.7,0.7-13,11.2-11.9,23.3c0.4,4.9,2,9.5,4.5,13.7l1.5,13.7l-0.2,0.1l-3.7,65.2
		c-0.9,15.2,5.1,30,16.7,39.9c6.9,5.9,14.2,8.8,18.9,1.4c7.8-12.3-2.3-62.8-9-91.6l-2.6-30.7c1.8-4.5,2.4-9.5,1.9-14.3
		C252.4,181.2,245.2,172,237.5,172.7L237.5,172.7L237.5,172.7L237.5,172.7z"/>
</g>
</svg>
